<svg width="512" height="512" viewBox="0 0 512 512" fill="none" xmlns="http://www.w3.org/2000/svg">
<path d="M119.392 487.725C125.75 494.496 133.8 497.881 143.543 497.881C153.286 497.881 161.708 494.578 168.809 487.973C175.91 481.368 182.226 472.987 187.758 462.831C193.29 452.675 198.533 442.231 203.487 431.497L203.982 430.506C208.606 420.598 213.23 411.35 217.854 402.763C222.478 394.176 227.473 387.241 232.84 381.956C238.207 376.672 244.275 374.03 251.046 374.03C257.321 374.03 262.275 374.938 265.908 376.755C269.541 378.571 272.926 380.635 276.064 382.947L277.055 383.69C280.192 386.002 283.701 388.19 287.582 390.254C291.463 392.319 296.458 393.351 302.568 393.351C308.513 393.351 313.549 392.443 317.678 390.626C321.806 388.81 325.439 386.828 328.577 384.681L329.32 384.186C332.787 381.874 336.297 379.934 339.847 378.365C343.397 376.796 347.98 376.012 353.594 376.012C360.53 376.012 366.434 378.117 371.305 382.328C376.177 386.539 380.511 391.988 384.309 398.676C388.108 405.364 391.823 412.506 395.456 420.103L395.951 421.093C401.236 432.653 407.263 443.387 414.034 453.295C420.804 463.203 430.134 468.157 442.024 468.157C452.923 468.157 461.964 464.648 469.147 457.629C476.331 450.611 479.922 441.405 479.922 430.011C479.922 422.084 477.198 414.736 471.748 407.965C466.299 401.195 460.602 394.837 454.657 388.892L453.914 388.149C448.795 383.03 444.377 378.241 440.662 373.782C436.946 369.324 435.088 364.948 435.088 360.654C435.088 355.865 435.749 352.232 437.07 349.755C438.391 347.278 440.042 344.801 442.024 342.324L443.015 341.086C445.162 338.443 447.143 335.43 448.96 332.045C450.776 328.659 451.684 323.912 451.684 317.802C451.684 311.196 449.951 305.334 446.483 300.215C443.015 295.096 439.217 290.224 435.088 285.6L433.85 284.114C429.722 279.325 426.047 274.371 422.827 269.252C419.607 264.133 417.997 258.271 417.997 251.665C417.997 243.574 420.061 237.092 424.19 232.221C428.318 227.349 433.685 223.345 440.29 220.207C446.896 217.07 453.831 214.262 461.097 211.785L462.583 211.29C473.152 207.657 482.936 203.322 491.936 198.285C500.936 193.249 505.436 185.199 505.436 174.134C505.436 162.08 501.679 153.41 494.165 148.126C486.652 142.841 478.519 140.199 469.767 140.199C463.987 140.199 458.083 141.479 452.056 144.039C446.029 146.598 440.125 149.282 434.345 152.089L433.354 152.584C428.235 155.227 423.199 157.58 418.245 159.644C413.291 161.708 408.584 162.74 404.126 162.74C396.199 162.74 389.14 159.933 382.947 154.318C376.755 148.704 373.658 140.777 373.658 130.539C373.658 124.099 376.011 116.42 380.718 107.503C385.424 98.5854 390.585 89.4204 396.199 80.0077L396.942 78.7692C402.227 69.852 407.098 61.0998 411.557 52.5128C416.015 43.9258 418.245 36.4948 418.245 30.2196C418.245 21.1372 415.52 13.83 410.071 8.29802C404.621 2.76601 396.777 0 386.539 0C378.447 0 371.883 2.43574 366.847 7.30721C361.81 12.1787 357.847 18.4538 354.957 26.1326C352.067 33.8113 349.714 41.7791 347.897 50.0358L342.448 76.5399C339.475 91.2369 334.604 100.98 327.833 105.769C321.063 110.558 309.586 112.952 293.403 112.952C288.284 112.952 283.206 111.383 278.169 108.246C273.133 105.108 270.614 99.4936 270.614 91.402C270.614 86.2829 268.509 81.4114 264.298 76.7876C260.087 72.1638 253.193 69.852 243.615 69.852C228.918 69.852 221.569 62.6686 221.569 48.3019C221.569 40.5406 219.051 32.7379 214.014 24.894C208.978 17.0502 201.093 13.1282 190.359 13.1282C181.276 13.1282 174.712 15.6878 170.667 20.807C166.621 25.9261 164.598 32.0361 164.598 39.1369C164.598 43.2653 165.63 47.1872 167.694 50.9028C169.758 54.6183 171.864 58.1274 174.011 61.4301L174.754 62.4209C177.065 65.7236 179.088 68.9437 180.822 72.0813C182.556 75.2188 183.423 78.439 183.423 81.7417C183.423 88.5122 179.955 93.5075 173.02 96.7276C166.084 99.9478 157.745 101.558 148.002 101.558C141.231 101.558 135.039 99.2459 129.424 94.6222C123.81 89.9984 118.195 84.7966 112.58 79.0169L111.837 78.2738C106.553 72.6592 100.938 67.4575 94.9936 62.6686C89.0487 57.8797 82.2782 55.4852 74.682 55.4852C67.7464 55.4852 60.8107 57.054 53.875 60.1916C46.9394 63.3291 41.1184 67.9942 36.4121 74.1867C31.7057 80.3793 29.3525 88.0168 29.3525 97.0992C29.3525 108.989 33.8112 119.64 42.7285 129.053C51.6457 138.465 62.8336 147.011 76.2921 154.69C89.7505 162.369 103.085 169.511 116.296 176.116L117.287 176.612C132.149 184.043 144.988 191.02 155.804 197.542C166.621 204.065 172.029 210.547 172.029 216.987C172.029 224.583 168.561 230.858 161.625 235.812C154.69 240.766 146.598 245.638 137.351 250.427L136.36 250.922C129.094 254.72 121.787 258.972 114.438 263.679C107.09 268.385 101.021 274.041 96.2321 280.646C91.4432 287.252 89.0487 295.426 89.0487 305.169C89.0487 316.893 91.7734 326.182 97.2229 333.035C102.672 339.888 109.154 344.801 116.667 347.774C124.181 350.746 130.993 352.232 137.103 352.232C141.396 352.232 145.401 351.613 149.116 350.374C152.832 349.136 156.341 347.856 159.644 346.535L160.882 346.04C163.69 344.884 166.456 343.893 169.18 343.067C171.905 342.242 174.836 341.829 177.974 341.829C181.607 341.829 184.703 342.943 187.263 345.173C189.822 347.402 191.102 350.251 191.102 353.718C191.102 357.682 188.047 363.049 181.937 369.819C175.827 376.59 168.478 384.103 159.891 392.36L158.653 393.598C151.222 400.864 143.75 408.419 136.236 416.263C128.722 424.107 122.447 431.868 117.411 439.547C112.374 447.226 109.856 454.533 109.856 461.469C109.856 472.203 113.035 480.955 119.392 487.725ZM14.862 269.004C20.394 274.454 27.2884 277.179 35.5451 277.179C39.5083 277.179 44.4624 276.023 50.4072 273.711C56.3521 271.399 62.3382 268.633 68.3656 265.413C74.393 262.193 79.6361 259.261 84.0947 256.619C88.5533 253.977 91.278 252.326 92.2689 251.665C100.03 246.546 103.911 240.519 103.911 233.583C103.911 228.794 102.136 224.501 98.5853 220.702C95.0349 216.904 90.1221 215.005 83.847 215.005C57.7557 215.005 38.3524 217.4 25.637 222.189C12.9216 226.978 6.56396 236.473 6.56396 250.674C6.56396 257.445 9.32997 263.555 14.862 269.004ZM145.277 297.49C143.461 298.481 141.314 298.976 138.837 298.976C135.369 298.976 132.479 297.944 130.167 295.88C127.855 293.816 126.699 291.215 126.699 288.077C126.699 283.123 128.764 278.995 132.892 275.692C136.855 272.555 140.86 269.995 144.906 268.014C148.951 266.032 152.956 265.041 156.919 265.041C160.222 265.041 163.112 266.073 165.589 268.137C168.066 270.202 169.304 272.885 169.304 276.188C169.304 279.656 168.437 282.298 166.703 284.114C164.969 285.931 162.121 287.995 158.158 290.307L145.277 297.49ZM328.577 500.73C333.2 508.243 340.384 512 350.127 512C360.86 512 368.663 509.069 373.534 503.207C378.406 497.344 380.842 491.028 380.842 484.257C380.842 476.826 378.901 468.281 375.021 458.62C371.14 448.96 367.383 440.579 363.75 433.478C361.438 428.69 358.342 425.263 354.461 423.199C350.581 421.135 346.741 420.103 342.943 420.103C337.494 420.103 332.581 421.919 328.205 425.552C323.829 429.185 321.641 434.634 321.641 441.9V479.551C321.641 486.156 323.953 493.216 328.577 500.73ZM214.634 247.702C211.166 251.005 207.12 252.656 202.496 252.656C198.863 252.656 195.932 251.5 193.703 249.188C191.473 246.876 190.359 244.482 190.359 242.005C190.359 237.546 192.671 233.335 197.294 229.372C200.102 227.06 201.96 225.037 202.868 223.303C203.776 221.569 204.23 219.464 204.23 216.987C204.23 210.712 198.368 202.703 186.643 192.96C174.919 183.217 159.974 173.144 141.809 162.74C137.185 160.098 134.874 156.465 134.874 151.841C134.874 148.704 136.03 145.814 138.341 143.172C140.653 140.53 143.461 139.209 146.763 139.209C149.405 139.209 151.882 139.786 154.194 140.942C167.24 148.373 179.46 156.176 190.854 164.35C202.249 172.524 211.455 180.988 218.473 189.74C225.491 198.492 229 207.574 229 216.987C229 222.767 227.679 228.34 225.037 233.707C222.395 239.074 218.927 243.739 214.634 247.702Z" fill="black"/>
</svg>
